# xmcd
#
# Track frame offsets:
#	150
#	38769
#	46256
#	73958
#	96042
#	105566
#	123280
#	128870
#	150283
#	171307
#	196869
#	230622
#	239661
#	276985
#	307122
#
# Disc length: 4550 seconds
#
# Revision: 1
# Processed by: cddbd v1.5.1PL2 Copyright (c) Steve Scherf et al.
# Submitted via: EasyCDDAExtractor 9.0.0.1
#
DISCID=d111c40f
DTITLE=Guns and Roses - NovaRock-Festival Pannonia Fields II Nickelsdorf Austria
DTITLE=17-06-06 Disc 2
DYEAR=2006
DGENRE=Hard Rock
TTITLE0=November Rain
TTITLE1=Band Intro
TTITLE2=Bumblefoot Solo
TTITLE3=Outta Get Me
TTITLE4=Happy Birthday für Dizzy
TTITLE5=My Michelle (With Sebastian Bach)
TTITLE6=Izzy Intro
TTITLE7=Think About You (With Izzy Stradlin)
TTITLE8=Used To Love Her (With Izzy Stradlin)
TTITLE9=IRS
TTITLE10=Patience (With Izzy Stradlin)
TTITLE11=Bumblefoot Solo
TTITLE12=Nightrain (With Izzy Stradlin)
TTITLE13=Rocket Queen
TTITLE14=Paradise City (With Izzy Stradlin)
EXTD=
EXTT0=
EXTT1=
EXTT2=
EXTT3=
EXTT4=
EXTT5=
EXTT6=
EXTT7=
EXTT8=
EXTT9=
EXTT10=
EXTT11=
EXTT12=
EXTT13=
EXTT14=
PLAYORDER=
